:SAMPLES-PER-SECOND 30
:FULLY-SPECIFIED
:DEGREES
115
root  -40.4008 39.3897 4.26758 -14.0721 -49.6797 9.47664
RightUpLeg  -5.95675 2.6821 -9.9464
RightLeg  66.1575 -0.779728 -2.57929
RightFoot  8.10053 -1.36817 8.30226
RightToes  2.91037e-010 0 -3.6325e-017
Spine  3.83973 3.65457 -0.212539
Spine1  10.2612 5.79113 -7.56638
HEad  -4.7331 -0.667501 -2.50121
LeftShoulder1  8.46401 -11.7464 -48.4436
LeftArm  -9.39312 21.995 -26.8567
LeftForeArm  21.9363 -14.5661 -4.61978
LeftHand  -0.244104 0.0205437 5.32207
RightShoulder  7.47267 10.8998 45.3251
RightArm  -2.74473 -8.841 33.5281
RightForeArm  20.1848 2.07906 7.20916
RightHand  -0.543347 -0.531091 -12.9784
LeftUpLeg  -13.3403 8.80865 -9.61813
LeftLeg  22.2483 7.87036 3.87124
LeftFoot  -2.73929 -0.500105 6.85941
LeftToes  -2.38291e-010 7.29328e-011 -2.49822e-011
116
root  -41.3296 39.7928 5.30012 -13.6939 -49.5534 8.40953
RightUpLeg  -11.5902 2.77115 -8.53611
RightLeg  66.1876 -1.17082 -3.56328
RightFoot  5.18929 -1.05155 7.48068
RightToes  2.91037e-010 0 -3.6325e-017
Spine  4.96121 2.66447 0.00317744
Spine1  9.61418 4.5731 -6.86376
HEad  -5.28661 0.301275 -2.76527
LeftShoulder1  8.39634 -11.6521 -48.3538
LeftArm  -8.68368 19.9345 -26.3351
LeftForeArm  20.6464 -19.5476 -3.97111
LeftHand  -0.244104 0.0205437 5.32207
RightShoulder  7.25392 10.5969 44.9252
RightArm  0.203613 -11.6055 32.414
RightForeArm  19.3341 5.28412 8.06232
RightHand  -0.548097 -0.360354 -12.6609
LeftUpLeg  -9.41015 9.20556 -8.78197
LeftLeg  20.3117 7.51842 3.37154
LeftFoot  -4.24 -0.386792 6.64067
LeftToes  -2.38291e-010 7.29328e-011 -2.49822e-011
117
root  -42.2358 40.0721 6.30265 -13.0633 -49.0244 7.27205
RightUpLeg  -16.2179 2.50191 -7.27591
RightLeg  62.2112 -1.85428 -4.35949
RightFoot  3.61687 -0.80304 6.29331
RightToes  2.91037e-010 0 -3.6325e-017
Spine  6.08571 1.63352 0.0546295
Spine1  8.71169 3.22042 -6.14738
HEad  -5.5714 0.906256 -2.74301
LeftShoulder1  8.31342 -11.597 -48.0475
LeftArm  -9.8966 18.3978 -25.6511
LeftForeArm  22.2096 -25.0358 -4.1071
LeftHand  -0.244104 0.0205437 5.32207
RightShoulder  6.89416 10.222 43.8159
RightArm  3.4776 -14.7908 31.8343
RightForeArm  14.9711 9.49042 8.4552
RightHand  -0.553025 -0.337805 -12.7189
LeftUpLeg  -5.87345 8.98832 -7.88574
LeftLeg  18.7046 7.49329 2.72246
LeftFoot  -5.99189 -0.278665 6.74183
LeftToes  -2.38291e-010 7.29328e-011 -2.49822e-011
118
root  -43.1542 40.2864 7.31358 -12.6086 -48.688 6.39235
RightUpLeg  -19.3971 2.18476 -6.2976
RightLeg  54.4775 -2.73104 -4.52591
RightFoot  2.38482 -0.57023 4.87902
RightToes  2.91037e-010 0 -3.6325e-017
Spine  7.06422 0.792198 0.0683103
Spine1  7.85978 2.05986 -5.29303
HEad  -5.85743 1.38569 -2.74754
LeftShoulder1  8.23321 -11.4739 -47.9738
LeftArm  -12.1761 17.1134 -24.5899
LeftForeArm  25.3891 -30.85 -5.32652
LeftHand  -0.244104 0.0205437 5.32207
RightShoulder  6.56714 9.96961 42.4442
RightArm  8.08096 -17.808 31.4301
RightForeArm  8.13909 13.734 7.78686
RightHand  -0.597135 -0.151571 -13.255
LeftUpLeg  -2.38736 8.13712 -6.94444
LeftLeg  17.0362 8.07774 1.76313
LeftFoot  -7.42406 -0.195002 6.99988
LeftToes  -2.38291e-010 7.29328e-011 -2.49822e-011
119
root  -44.133 40.3473 8.32107 -12.4806 -48.3163 6.07478
RightUpLeg  -20.8655 1.30235 -5.88077
RightLeg  43.492 -3.57849 -3.92327
RightFoot  0.843653 -0.570798 5.41428
RightToes  2.91037e-010 0 -3.6325e-017
Spine  7.40856 0.223838 -0.648811
Spine1  7.60394 1.07704 -4.11622
HEad  -6.3329 1.72589 -2.8005
LeftShoulder1  8.22369 -11.3633 -48.2761
LeftArm  -13.4408 15.6876 -23.2612
LeftForeArm  27.5539 -36.5688 -6.65191
LeftHand  -0.244104 0.0205437 5.32207
RightShoulder  6.26927 9.74236 41.1231
RightArm  11.4795 -20.1281 30.8219
RightForeArm  3.01012 16.9593 6.71354
RightHand  -0.662233 0.20889 -13.781
LeftUpLeg  0.48445 7.39533 -6.34549
LeftLeg  16.4382 8.38787 0.887933
LeftFoot  -9.45666 -0.0557126 6.74764
LeftToes  -2.38291e-010 7.29328e-011 -2.49822e-011
120
root  -45.217 40.2324 9.34375 -12.6475 -47.4247 6.40982
RightUpLeg  -21.0406 -0.769697 -5.92844
RightLeg  30.7971 -4.38166 -3.05575
RightFoot  0.0945962 -0.674927 6.72848
RightToes  2.91037e-010 0 -3.6325e-017
Spine  6.77349 -0.134942 -2.3425
Spine1  8.06986 0.239222 -2.60872
HEad  -6.9085 1.31641 -2.56376
LeftShoulder1  8.3042 -11.457 -48.4464
LeftArm  -14.1189 14.0175 -22.0894
LeftForeArm  29.1009 -41.4324 -7.97056
LeftHand  -0.244104 0.0205437 5.32207
RightShoulder  5.93535 9.36897 39.9707
RightArm  12.2088 -21.7367 30.2538
RightForeArm  0.810695 18.5673 6.06999
RightHand  -0.704745 0.453895 -14.0624
LeftUpLeg  2.77511 6.98647 -6.34184
LeftLeg  16.9866 8.0178 0.412605
LeftFoot  -12.2002 0.120618 6.19772
LeftToes  -2.38291e-010 7.29328e-011 -2.49822e-011
121
root  -46.346 40.0803 10.3915 -12.856 -46.2008 6.95547
RightUpLeg  -20.5586 -3.98169 -5.86536
RightLeg  17.9211 -4.34381 -1.72937
RightFoot  0.359034 -0.672348 6.57374
RightToes  2.91037e-010 0 -3.6325e-017
Spine  5.61334 -0.376435 -3.90358
Spine1  8.90157 -0.370165 -1.09382
HEad  -7.41936 -0.0241039 -1.96067
LeftShoulder1  8.41533 -11.723 -48.2374
LeftArm  -14.4963 12.2099 -21.2856
LeftForeArm  30.2907 -45.0084 -9.0796
LeftHand  -0.244104 0.0205437 5.32207
RightShoulder  5.6082 8.89624 39.1346
RightArm  10.1316 -22.8161 29.9316
RightForeArm  1.17085 18.2238 6.10741
RightHand  -0.731626 0.579353 -14.2953
LeftUpLeg  5.25187 6.52647 -6.71689
LeftLeg  17.062 7.50379 0.24916
LeftFoot  -14.4161 0.250409 6.0559
LeftToes  -2.38291e-010 7.29328e-011 -2.49822e-011
122
root  -47.4847 39.8699 11.4656 -13.152 -44.9575 7.58321
RightUpLeg  -19.5496 -6.68458 -6.18922
RightLeg  6.1433 -2.86672 0.443108
RightFoot  -0.0240818 -0.654136 6.61636
RightToes  2.91037e-010 0 -3.6325e-017
Spine  4.5508 -0.612753 -4.78209
Spine1  9.56023 -0.797518 -0.121946
HEad  -7.77916 -1.30367 -1.55871
LeftShoulder1  8.48702 -11.9218 -48.0201
LeftArm  -14.7592 10.4072 -20.7127
LeftForeArm  31.0392 -47.1428 -9.81391
LeftHand  -0.244104 0.0205437 5.32207
RightShoulder  5.37411 8.51952 38.6274
RightArm  5.48186 -23.451 29.7442
RightForeArm  3.92801 15.9789 6.62637
RightHand  -0.753374 0.686189 -14.4667
LeftUpLeg  7.78757 6.41331 -7.16508
LeftLeg  17.1087 6.61258 0.293327
LeftFoot  -16.5488 0.365268 5.86871
LeftToes  -2.38291e-010 7.29328e-011 -2.49822e-011
